<svg height="512pt" viewBox="0 0 512 512" width="512pt" xmlns="http://www.w3.org/2000/svg"><path d="m512 146.429688-73.214844-73.214844-214.785156 153.730468-150.785156 211.839844 73.214844 73.214844c23.476562-23.480469 61.546874-23.480469 85.027343 0l280.542969-280.542969c-23.480469-23.480469-23.480469-61.550781 0-85.027343zm0 0" fill="#e50058"/><path d="m365.570312 0c-23.476562 23.480469-61.546874 23.480469-85.027343 0l-280.542969 280.542969c23.480469 23.480469 23.480469 61.550781 0 85.027343l73.214844 73.214844 365.570312-365.570312zm0 0" fill="#ff5b5b"/><path d="m214.925781 447.082031c-8.492187-2.035156-17.230469-3.066406-25.984375-3.066406-8.75 0-17.492187 1.03125-25.980468 3.066406l-8.164063 1.957031-45.917969-45.914062 104.226563-187.023438 190.019531-107.226562 45.917969 45.917969-1.960938 8.167969c-4.074219 16.996093-4.074219 34.964843 0 51.960937l1.960938 8.167969-225.953125 225.949218zm0 0" fill="#ffd399"/><path d="m62.960938 357.207031 1.957031-8.167969c4.074219-16.996093 4.074219-34.964843 0-51.964843l-1.957031-8.164063 225.949218-225.949218 8.164063 1.957031c8.492187 2.035156 17.230469 3.066406 25.984375 3.066406 8.75 0 17.492187-1.03125 25.980468-3.066406l8.164063-1.957031 45.917969 45.914062-294.246094 294.25zm0 0" fill="#ffe9cc"/><path d="m306.027344 138.453125 21.210937 21.210937-155.769531 155.773438-21.214844-21.214844zm0 0" fill="#09607d"/><path d="m352.332031 184.757812 21.210938 21.214844-155.769531 155.769532-21.214844-21.214844zm0 0" fill="#07485e"/></svg>